<svg width="352" height="156" viewBox="0 0 352 156" fill="none" xmlns="http://www.w3.org/2000/svg">
<rect x="1" width="350" height="156" rx="8" fill="#0D261A"/>
<g clip-path="url(#clip0_331_307)">
<rect width="352" height="156" rx="8" fill="#0D261A"/>
<g filter="url(#filter0_f_331_307)">
<path d="M14.3509 33.7575C-13.7131 17.7511 -12.9202 -5.73192 -9.01581 -15.4726C-2.5018 -45.8005 60.4868 -40.0614 52.7178 -22.8967C44.9488 -5.73192 67.0008 -1.73033 92.9373 22.2792C118.874 46.2888 52.7178 88.0949 60.4868 72.6677C68.2558 57.2405 49.4309 53.7655 14.3509 33.7575Z" fill="#5DC564"/>
</g>
<g filter="url(#filter1_f_331_307)">
<path d="M237.732 103.568C254.922 95.2333 293.496 93.2441 310.272 151.968C316.119 172.434 317.99 186.609 319.161 196.275C363.225 204.804 395.765 209.445 370.874 211.652C320.534 216.117 322.189 221.278 319.161 196.275C239.651 180.886 122.617 152.835 237.732 103.568Z" fill="#89C540"/>
</g>
<path d="M363.502 136.824C361.983 134.638 359.721 132.669 356.7 130.928C353.685 129.187 350.284 127.88 346.493 127.007C342.702 126.133 338.851 125.689 334.94 125.683C331.03 125.678 327.179 126.101 323.399 126.963C319.618 127.826 316.229 129.122 313.235 130.852C310.235 132.582 307.99 134.54 306.498 136.721C305.007 138.906 304.269 141.125 304.28 143.386C304.291 145.198 304.784 146.993 305.766 148.756C306.005 149.19 306.276 149.624 306.574 150.052C308.087 152.243 310.355 154.207 313.37 155.948C316.229 157.597 319.434 158.86 322.986 159.728C323.182 159.782 323.377 159.831 323.578 159.875C323.751 159.912 323.919 159.95 324.093 159.988C326.794 160.585 329.527 160.959 332.288 161.117C333.232 161.165 334.181 161.198 335.13 161.198C336.15 161.198 337.164 161.171 338.173 161.111C341.042 160.948 343.873 160.552 346.672 159.912C346.824 159.88 346.976 159.842 347.127 159.804C350.723 158.952 353.961 157.689 356.841 156.029C359.835 154.299 362.081 152.341 363.572 150.155C363.843 149.765 364.087 149.369 364.304 148.973C365.297 147.194 365.79 145.388 365.79 143.555V143.495C365.78 141.239 365.015 139.015 363.502 136.824ZM327.673 152.292L324.841 152.281H324.277L324.093 152.276L320.09 152.26H319.976L319.965 149.624H324.093C323.664 149.369 323.263 149.098 322.894 148.81C322.097 148.208 321.435 147.541 320.898 146.82C320.117 145.762 319.721 144.623 319.711 143.414C319.705 142.199 320.096 141.049 320.887 139.964C321.435 139.21 322.124 138.527 322.954 137.919C323.323 137.643 323.713 137.388 324.136 137.144C325.183 136.542 326.355 136.032 327.656 135.614C328.958 135.197 330.368 134.909 331.892 134.746L331.903 136.618V137.507C331.035 137.67 330.216 137.881 329.435 138.142C328.66 138.402 327.965 138.711 327.353 139.064C326.414 139.606 325.666 140.257 325.107 141.022C324.549 141.786 324.272 142.584 324.277 143.419C324.283 144.298 324.586 145.122 325.189 145.887C325.492 146.272 325.85 146.63 326.262 146.966C326.675 147.291 327.146 147.601 327.673 147.883L327.662 146.462V145.182L332.218 145.192L332.315 152.314L327.673 152.292ZM350.073 145.469C349.872 145.963 349.595 146.445 349.237 146.917C348.917 147.34 348.554 147.736 348.147 148.116C347.843 148.403 347.513 148.675 347.16 148.929C346.78 149.217 346.374 149.483 345.94 149.732C345.891 149.759 345.842 149.786 345.793 149.814C345.17 150.166 344.502 150.486 343.792 150.768C343.353 150.947 342.892 151.115 342.414 151.267H342.409C341.107 151.679 339.702 151.972 338.178 152.135L338.167 149.374C339.035 149.211 339.854 148.995 340.635 148.734C341.411 148.474 342.105 148.17 342.723 147.812C343.662 147.27 344.41 146.619 344.963 145.86C345.061 145.724 345.153 145.588 345.229 145.447C345.609 144.818 345.793 144.162 345.793 143.479V143.457C345.788 142.622 345.468 141.803 344.828 140.995C344.193 140.186 343.385 139.503 342.403 138.934L342.414 141.694H337.853L337.788 136.612L337.761 134.567L350.094 134.622L350.111 137.258L345.923 137.279C346.314 137.502 346.683 137.74 347.024 137.984C347.903 138.608 348.641 139.302 349.226 140.062C350.045 141.119 350.463 142.253 350.469 143.468C350.474 144.157 350.338 144.824 350.073 145.469Z" stroke="#89C540" stroke-width="0.20339" stroke-linecap="round" stroke-linejoin="round"/>
<path d="M331.909 137.507C331.035 137.67 330.216 137.881 329.435 138.142C328.66 138.402 327.966 138.711 327.353 139.064C326.414 139.606 325.666 140.257 325.107 141.022C324.549 141.786 324.272 142.584 324.277 143.419V152.276H324.093V149.629C323.664 149.369 323.263 149.098 322.894 148.81C322.097 148.208 321.435 147.541 320.898 146.82C320.117 145.762 319.721 144.623 319.711 143.414C319.705 142.199 320.096 141.049 320.888 139.964C321.435 139.21 322.124 138.527 322.954 137.919C323.323 137.643 323.713 137.388 324.136 137.144C325.183 136.542 326.355 136.032 327.656 135.614C328.958 135.197 330.368 134.909 331.892 134.746L331.903 136.618V137.507H331.909Z" stroke="#89C540" stroke-width="0.20339" stroke-linecap="round" stroke-linejoin="round"/>
<path d="M324.093 149.629V152.276L320.09 152.26H319.976L319.965 149.624H321.929L324.093 149.629Z" stroke="#89C540" stroke-width="0.20339" stroke-linecap="round" stroke-linejoin="round"/>
<path d="M327.673 152.292V147.883L327.662 146.462L327.656 145.182L332.218 145.193L332.315 152.314L327.673 152.292Z" stroke="#89C540" stroke-width="0.20339" stroke-linecap="round" stroke-linejoin="round"/>
<path d="M327.673 147.883V152.292L324.841 152.281H324.277V143.419C324.283 144.298 324.586 145.122 325.189 145.887C325.492 146.272 325.85 146.63 326.262 146.966C326.675 147.292 327.146 147.601 327.673 147.883Z" stroke="#89C540" stroke-width="0.20339" stroke-linecap="round" stroke-linejoin="round"/>
<path d="M345.923 148.127C346.363 148.382 346.78 148.647 347.16 148.929C346.78 149.217 346.374 149.483 345.94 149.732C345.891 149.759 345.842 149.786 345.793 149.814V143.457C345.788 142.622 345.468 141.803 344.828 140.995C344.193 140.186 343.385 139.503 342.403 138.933L342.414 141.694H337.853L337.788 136.612L337.761 134.567L350.094 134.622L350.111 137.258L345.923 137.279V148.127Z" stroke="#89C540" stroke-width="0.20339" stroke-linecap="round" stroke-linejoin="round"/>
<path d="M345.793 143.479V149.813C345.17 150.166 344.502 150.486 343.792 150.768C343.353 150.947 342.892 151.115 342.414 151.267H342.409C341.107 151.679 339.702 151.972 338.178 152.135L338.167 149.374C339.035 149.211 339.854 148.994 340.635 148.734C341.411 148.474 342.105 148.17 342.723 147.812C343.662 147.27 344.41 146.619 344.963 145.86C345.061 145.724 345.153 145.588 345.229 145.447C345.609 144.818 345.793 144.162 345.793 143.479Z" stroke="#89C540" stroke-width="0.20339" stroke-linecap="round" stroke-linejoin="round"/>
<path d="M350.469 143.468C350.474 144.157 350.338 144.824 350.073 145.469C349.872 145.963 349.595 146.445 349.237 146.917C348.917 147.34 348.554 147.736 348.147 148.116C347.843 148.403 347.513 148.675 347.16 148.929C346.78 148.647 346.363 148.382 345.923 148.127V137.279C346.314 137.502 346.683 137.74 347.025 137.984C347.903 138.608 348.641 139.302 349.227 140.062C350.046 141.119 350.463 142.253 350.469 143.468Z" stroke="#89C540" stroke-width="0.20339" stroke-linecap="round" stroke-linejoin="round"/>
<path d="M365.79 143.555V154.342C365.801 156.604 365.064 158.822 363.572 161.003C362.081 163.188 359.835 165.146 356.841 166.877C353.842 168.607 350.452 169.903 346.672 170.76C342.892 171.622 339.046 172.051 335.13 172.045C331.22 172.035 327.369 171.595 323.578 170.722C319.786 169.843 316.386 168.536 313.37 166.795C310.355 165.054 308.087 163.091 306.574 160.9C305.056 158.714 304.291 156.49 304.28 154.234V143.386C304.291 145.198 304.784 146.993 305.766 148.756C306.005 149.19 306.276 149.624 306.574 150.052C308.087 152.243 310.355 154.207 313.37 155.948C316.228 157.597 319.434 158.86 322.986 159.728C323.182 159.782 323.377 159.831 323.578 159.875C323.751 159.912 323.919 159.95 324.093 159.988C326.794 160.585 329.527 160.959 332.288 161.117C333.232 161.165 334.181 161.198 335.13 161.198C336.15 161.198 337.164 161.171 338.173 161.111C341.042 160.948 343.873 160.552 346.672 159.912C346.824 159.88 346.976 159.842 347.127 159.804C350.723 158.952 353.961 157.689 356.841 156.029C359.835 154.299 362.081 152.341 363.572 150.155C363.843 149.765 364.087 149.369 364.304 148.973C365.297 147.194 365.79 145.388 365.79 143.555Z" stroke="#89C540" stroke-width="0.20339" stroke-linecap="round" stroke-linejoin="round"/>
<path d="M26.3254 44.271C26.1415 44.4457 25.9576 44.6157 25.7692 44.7858L27.7596 44.9881L25.9485 49.617L17.3065 48.8953L20.2944 41.2555L22.2848 36.1575L25.406 36.4333L22.9881 42.6024L22.8272 43.0069C22.956 42.9103 23.0847 42.8138 23.2088 42.7127C26.5966 40.1062 29.4374 36.6402 31.7174 32.3192C34.0847 27.8374 35.2659 23.5072 35.2659 19.3196C35.2659 18.938 35.2613 18.5887 35.2429 18.2669C35.2291 17.9451 35.1923 17.6325 35.1326 17.32L38.7962 15.2054C38.8238 15.5318 38.8468 15.8582 38.8652 16.1754C38.8789 16.4971 38.8881 16.8465 38.8881 17.228C38.8881 21.8983 37.67 26.7801 35.2429 31.8688C32.931 36.7092 29.9614 40.8417 26.3254 44.271Z" stroke="#89C540" stroke-width="0.193548" stroke-linecap="round" stroke-linejoin="round"/>
<path d="M37.0771 0.624474V12.0429L34.9396 13.2748L31.2761 15.3939L29.4236 16.4604L27.1252 17.7888V13.6379L27.424 13.4633L29.6902 12.1578L31.083 11.3487L32.0575 10.7879C30.6693 9.62036 28.9961 9.05496 27.0333 9.09633C26.1277 9.11472 25.1945 9.26181 24.2384 9.55141C23.3053 9.82262 22.3445 10.2225 21.3562 10.7512C21.1678 10.8477 20.9793 10.9534 20.7908 11.0637C19.8025 11.6337 18.851 12.2865 17.9316 13.0266C17.3019 13.5322 16.6859 14.0792 16.0883 14.663C14.6082 16.1064 13.2521 17.7199 12.0156 19.5034L10.2045 16.9154C11.7122 14.8331 13.3579 12.9346 15.1368 11.2154C16.9158 9.49625 18.8004 8.06205 20.7908 6.91286C21.3976 6.56351 21.9998 6.24633 22.5928 5.97052C24.3258 5.16149 26.0036 4.67423 27.6216 4.49955C27.709 4.49036 27.7963 4.48117 27.8837 4.47657C29.7086 4.31568 31.3726 4.5823 32.8712 5.27181L33.4595 5.56601V2.71141L37.0771 0.624474Z" stroke="#89C540" stroke-width="0.193548" stroke-linecap="round" stroke-linejoin="round"/>
<path d="M8.26451 49.9434L-0.616454 45.4983L-0.929034 45.342C-1.1175 45.2455 -1.29678 45.1398 -1.47605 45.0294L-1.49444 45.0203C-2.24371 44.5514 -2.93323 43.963 -3.55839 43.2505C-5.51661 41.0257 -6.49573 37.7986 -6.49573 33.5787C-6.49573 32.8938 -6.47274 32.2089 -6.43597 31.524L-2.79073 33.3443L1.11193 35.2979L3.19427 32.6962C3.0104 33.6293 2.88629 34.5533 2.80814 35.4634C2.7346 36.369 2.69782 37.2745 2.69782 38.1755C2.69782 39.3385 2.77137 40.4233 2.92306 41.4348C3.16669 43.1172 3.62177 44.5928 4.27911 45.8569C4.66064 46.5923 5.11572 47.2543 5.63516 47.8473C6.29709 48.6011 7.02798 49.2125 7.81863 49.6952L7.86919 49.7228C7.9979 49.8009 8.13121 49.8744 8.26451 49.9434Z" stroke="#89C540" stroke-width="0.193548" stroke-linecap="round" stroke-linejoin="round"/>
<path d="M35.2659 19.3196C35.2659 23.5072 34.0846 27.8374 31.7172 32.3192C29.4372 36.6402 26.5964 40.1062 23.2086 42.7127C23.0845 42.8138 22.9558 42.9103 22.8271 43.0069L22.988 42.6024L25.4059 36.4333L18.9612 33.211C20.2713 31.57 21.4572 29.7404 22.5237 27.7225C24.4267 24.1186 25.5667 20.6067 25.9345 17.1958L27.1251 17.7888L29.4234 16.4604L31.2759 15.3939L35.1326 17.32C35.1923 17.6325 35.2291 17.9451 35.2429 18.2669C35.2613 18.5887 35.2659 18.938 35.2659 19.3196Z" stroke="#89C540" stroke-width="0.193548" stroke-linecap="round" stroke-linejoin="round"/>
<path d="M37.077 0.624475L33.4594 2.71141L27.8835 -0.0742344L24.2659 -1.88535L27.8835 -3.97229L37.077 0.624475Z" stroke="#89C540" stroke-width="0.193548" stroke-linecap="round" stroke-linejoin="round"/>
<path d="M33.4594 2.71146V5.56605L32.871 5.27186L27.8835 2.78041L24.2659 0.969281V-1.88533L27.8835 -0.0741866L33.4594 2.71146Z" stroke="#89C540" stroke-width="0.193548" stroke-linecap="round" stroke-linejoin="round"/>
<path d="M32.8711 5.27181C31.3726 4.5823 29.7085 4.31569 27.8836 4.47657C27.7963 4.48117 27.7089 4.49036 27.6216 4.49956C26.0035 4.67423 24.3257 5.16149 22.5927 5.97052C21.9997 6.24633 21.3976 6.56351 20.7908 6.91286C18.8004 8.06206 16.9157 9.49625 15.1368 11.2154C13.3578 12.9346 11.7122 14.8331 10.2044 16.9154L3.71836 13.6747L1.01086 12.3187C2.51861 10.2363 4.16425 8.33786 5.9432 6.61867C7.72215 4.89948 9.60683 3.46528 11.5972 2.31609C13.9784 0.937057 16.2584 0.137218 18.428 -0.0972174C20.5977 -0.331653 22.5468 0.0268953 24.2659 0.969234L27.8836 2.78036L32.8711 5.27181Z" stroke="#89C540" stroke-width="0.193548" stroke-linecap="round" stroke-linejoin="round"/>
<path d="M12.0155 19.5034L2.82199 14.9067L1.01086 12.3187L3.71836 13.6747L10.2044 16.9154L12.0155 19.5034Z" stroke="#89C540" stroke-width="0.193548" stroke-linecap="round" stroke-linejoin="round"/>
<path d="M27.1249 13.6379V17.7888L25.9344 17.1958L17.9314 13.1921V13.0266C18.8508 12.2865 19.8023 11.6338 20.7906 11.0638C20.9791 10.9534 21.1675 10.8477 21.356 10.7512L21.7835 10.9672L25.9941 13.0726L27.1249 13.6379Z" stroke="#89C540" stroke-width="0.193548" stroke-linecap="round" stroke-linejoin="round"/>
<path d="M32.0574 10.7879L31.0829 11.3488L29.69 12.1578L27.4238 13.4633L27.125 13.6379L25.9942 13.0725L21.7836 10.9672L21.3561 10.7512C22.3444 10.2225 23.3051 9.82262 24.2383 9.55141C25.1944 9.26181 26.1275 9.11472 27.0331 9.09633C28.9959 9.05496 30.6691 9.62036 32.0574 10.7879Z" stroke="#89C540" stroke-width="0.193548" stroke-linecap="round" stroke-linejoin="round"/>
<path d="M15.0909 46.2798L14.6036 47.5439L13.2797 50.9593C11.6617 51.0328 10.2045 50.7984 8.89901 50.2376C8.68296 50.1503 8.47151 50.0537 8.26465 49.9434C8.13135 49.8744 7.99804 49.8009 7.86933 49.7228L7.81877 49.6952C7.02812 49.2125 6.29724 48.6011 5.6353 47.8473C5.11587 47.2543 4.66078 46.5924 4.27925 45.8569C3.62191 44.5928 3.16683 43.1172 2.9232 41.4348C2.77151 40.4233 2.69796 39.3385 2.69796 38.1755C2.69796 37.2746 2.73474 36.369 2.80828 35.4634C2.88643 34.5533 3.01054 33.6293 3.19441 32.6962L1.11207 35.2979L-0.694458 32.7605L2.19691 29.1796L7.94288 22.0638L12.9212 29.0555L9.75401 32.9582L7.30853 29.4876C7.11086 30.1587 6.94078 30.8253 6.80748 31.4872C6.71095 31.9377 6.6328 32.3836 6.56385 32.8249C6.39836 33.9281 6.31562 35.0129 6.31562 36.084C6.31562 38.7639 6.82127 40.952 7.83715 42.6529C8.01643 42.9517 8.20949 43.2413 8.42094 43.5079C8.51288 43.632 8.60941 43.7469 8.71054 43.8619C8.87603 44.0503 9.04611 44.225 9.22078 44.3905C10.7515 45.8477 12.7097 46.4728 15.0909 46.2798Z" stroke="#89C540" stroke-width="0.193548" stroke-linecap="round" stroke-linejoin="round"/>
<path d="M27.7596 44.9881L26.3254 44.271" stroke="#89C540" stroke-width="0.193548" stroke-linecap="round" stroke-linejoin="round"/>
<path d="M25.4061 36.4334L22.2849 36.1576L20.9564 35.4956L18.2121 34.1212L15.7896 32.9123L13.0913 31.5608L16.2125 31.8366L25.4061 36.4334Z" stroke="#89C540" stroke-width="0.193548" stroke-linecap="round" stroke-linejoin="round"/>
<path d="M22.285 36.1576L20.2946 41.2555L17.3067 48.8953L14.6038 47.5439L15.091 46.2798L11.7354 44.6019L8.60498 43.039L13.0914 31.5608L15.7897 32.9123L18.2122 34.1212L20.9565 35.4956L22.285 36.1576Z" stroke="#89C540" stroke-width="0.193548" stroke-linecap="round" stroke-linejoin="round"/>
<path d="M15.0906 46.2798C12.7095 46.4728 10.7513 45.8477 9.22054 44.3905C9.04586 44.225 8.87578 44.0503 8.7103 43.8619C8.60917 43.7469 8.51264 43.632 8.4207 43.5079C8.20925 43.2413 8.01619 42.9517 7.83691 42.6529L8.60457 43.039L11.735 44.6019L15.0906 46.2798Z" stroke="#89C540" stroke-width="0.193548" stroke-linecap="round" stroke-linejoin="round"/>
<path d="M-2.79065 33.349V33.3443L-6.43589 31.524L-8.08153 30.7012L-9.88806 28.1638L-7.14838 29.5336L-6.28879 29.9611L-2.87339 31.6711L-0.694519 32.7606L1.11201 35.2979L-2.79065 33.349Z" stroke="#89C540" stroke-width="0.193548" stroke-linecap="round" stroke-linejoin="round"/>
<path d="M7.94282 22.0638L2.19685 29.1796L-0.694519 32.7605L-2.87339 31.6711L-6.28879 29.9611L-7.14838 29.5336L-9.88806 28.1637L-1.25073 17.4671L7.94282 22.0638Z" stroke="#89C540" stroke-width="0.193548" stroke-linecap="round" stroke-linejoin="round"/>
<path d="M9.75415 32.9582L6.80762 31.4873C6.94092 30.8253 7.111 30.1588 7.30867 29.4877L9.75415 32.9582Z" stroke="#89C540" stroke-width="0.193548" stroke-linecap="round" stroke-linejoin="round"/>
<path d="M38.7963 15.2054L35.1326 17.32L31.276 15.3939L34.9396 13.2748L38.7963 15.2054Z" stroke="#89C540" stroke-width="0.193548" stroke-linecap="round" stroke-linejoin="round"/>
</g>
<defs>
<filter id="filter0_f_331_307" x="-105.5" y="-131.5" width="299" height="302" filterUnits="userSpaceOnUse" color-interpolation-filters="sRGB">
<feFlood flood-opacity="0" result="BackgroundImageFix"/>
<feBlend mode="normal" in="SourceGraphic" in2="BackgroundImageFix" result="shape"/>
<feGaussianBlur stdDeviation="47.25" result="effect1_foregroundBlur_331_307"/>
</filter>
<filter id="filter1_f_331_307" x="4.02771" y="-86.2564" width="560.978" height="487.126" filterUnits="userSpaceOnUse" color-interpolation-filters="sRGB">
<feFlood flood-opacity="0" result="BackgroundImageFix"/>
<feBlend mode="normal" in="SourceGraphic" in2="BackgroundImageFix" result="shape"/>
<feGaussianBlur stdDeviation="92.75" result="effect1_foregroundBlur_331_307"/>
</filter>
<clipPath id="clip0_331_307">
<rect width="352" height="156" rx="8" fill="white"/>
</clipPath>
</defs>
</svg>
